<svg aria-hidden="true" style="position:absolute;width:0;height:0;overflow:hidden" xmlns="http://www.w3.org/2000/svg">
  <defs>
    <symbol id="icon-twitter" viewBox="0 0 32 32">
      <path stroke-linejoin="round" stroke-linecap="round" stroke-width="2" d="M30.667 4a14.542 14.542 0 0 1-4.187 2.04 5.975 5.975 0 0 0-6.637-1.661A5.981 5.981 0 0 0 16 10.04v1.333c-2.343.061-4.665-.459-6.759-1.513S4.68 6.297 3.333 4.379c0 0-4.667 12.954 7.333 18.287a15.519 15.519 0 0 1-9.333 2.667C13.333 32 28 25.333 28 10a5.966 5.966 0 0 0-.107-1.107A10.288 10.288 0 0 0 30.666 4z"/>
    </symbol>
    <symbol id="icon-facebook" viewBox="0 0 32 32">
      <path stroke-linejoin="round" stroke-linecap="round" stroke-width="2" d="M24 2.667h-4a6.67 6.67 0 0 0-6.667 6.667v4h-4v5.333h4v10.667h5.333V18.667h4l1.333-5.333h-5.333v-4A1.334 1.334 0 0 1 20 8h4V2.667z"/>
    </symbol>
    <symbol id="icon-instagram" viewBox="0 0 32 32">
      <path stroke-linejoin="round" stroke-linecap="round" stroke-width="2" d="M22.667 2.667H9.334a6.667 6.667 0 0 0-6.667 6.667v13.333a6.667 6.667 0 0 0 6.667 6.667h13.333a6.667 6.667 0 0 0 6.667-6.667V9.334a6.667 6.667 0 0 0-6.667-6.667z"/>
      <path stroke-linejoin="round" stroke-linecap="round" stroke-width="2" d="M21.333 15.16a5.329 5.329 0 0 1-2.878 5.546 5.337 5.337 0 0 1-6.169-.992 5.33 5.33 0 0 1 1.316-8.505 5.336 5.336 0 0 1 6.228.962 5.328 5.328 0 0 1 1.504 2.989zM23.333 8.667h.013"/>
    </symbol>
  
  
  <symbol id="icon-vector" viewBox="0 0 14 8">
  <path d="M7.65085 5.2835C7.56563 5.36942 7.46425 5.43762 7.35254 5.48415C7.24084 5.53069 7.12102 5.55465 7.00001 5.55465C6.879 5.55465 6.75919 5.53069 6.64748 5.48415C6.53578 5.43762 6.43439 5.36942 6.34918 5.2835L2.15084 1.076C2.06562 0.990084 1.96424 0.921889 1.85253 0.875351C1.74083 0.828813 1.62102 0.804853 1.50001 0.804853C1.37899 0.804853 1.25918 0.828813 1.14748 0.875351C1.03577 0.921889 0.934387 0.990084 0.849171 1.076C0.678441 1.24775 0.582611 1.48008 0.582611 1.72225C0.582611 1.96442 0.678441 2.19675 0.849171 2.3685L5.05668 6.576C5.5723 7.09099 6.27126 7.38025 7.00001 7.38025C7.72877 7.38025 8.42772 7.09099 8.94335 6.576L13.1509 2.3685C13.3202 2.19776 13.4157 1.96731 13.4167 1.72684C13.4174 1.6062 13.3943 1.4866 13.3486 1.37492C13.303 1.26324 13.2358 1.16166 13.1509 1.076C13.0656 0.990084 12.9643 0.921889 12.8525 0.875351C12.7408 0.828813 12.621 0.804853 12.5 0.804853C12.379 0.804853 12.2592 0.828813 12.1475 0.875351C12.0358 0.921889 11.9344 0.990084 11.8492 1.076L7.65085 5.2835Z" fill="#FD9222"/>
  </symbol>
  <symbol id="icon-chocolate-bar">
  <path d="M13.822 2.413 21.35 9.95l.08-.08a.856.856 0 0 1 1.184-.013l.006.006.867.867c.305.304.316.77.084 1.093l-.005.008-.143.192 6.16 6.16c.55.55.55 1.43 0 1.98l-9.43 9.43c-.55.55-1.43.55-1.98 0l-4.447-4.448a.843.843 0 0 1-1.255.072l-2.6-2.6a.856.856 0 0 1-.013-1.184l.006-.008.077-.076-7.527-7.527c-.55-.55-.55-1.43 0-1.98l9.43-9.43c.55-.55 1.43-.55 1.98 0v.002Zm6.582 8.48-1.756-1.755a.592.592 0 0 0-.85 0l-3.58 3.58a.607.607 0 0 0 0 .86l1.75 1.75.61-.61-1.566-1.566 3.21-3.22 1.57 1.575.612-.614Zm-5.075 5.072-1.755-1.754a.592.592 0 0 0-.85 0l-3.58 3.58-.005.006-.005.005c-.24.23-.24.61 0 .85l1.752 1.752.617-.616-1.57-1.564 3.22-3.21 1.563 1.563.613-.612ZM8.822 8.195l3.58 3.58c.24.24.62.24.85-.01l3.58-3.58a.579.579 0 0 0 .18-.42h.01c0-.15-.06-.31-.18-.43l-3.58-3.58a.605.605 0 0 0-.86 0l-3.58 3.59c-.24.23-.24.61 0 .85Zm-5.07 5.07 3.58 3.58c.24.24.62.24.85 0l3.58-3.58a.58.58 0 0 0 .18-.43h.01c0-.16-.06-.31-.18-.43l-3.58-3.58a.592.592 0 0 0-.85 0l-3.59 3.59c-.24.23-.24.61 0 .85Zm6.933 8.753 2.362 2.364 9.636-13.04-.654-.655-11.344 11.331Z" fill="#111"/>
  <path d="M13.822 2.413 21.35 9.95l.08-.08a.856.856 0 0 1 1.184-.013l.006.006.867.867c.305.304.316.77.084 1.093l-.005.008-.143.192 6.16 6.16c.55.55.55 1.43 0 1.98l-9.43 9.43c-.55.55-1.43.55-1.98 0l-4.447-4.448a.843.843 0 0 1-1.255.072l-2.6-2.6a.856.856 0 0 1-.013-1.184l.006-.008.077-.076-7.527-7.527c-.55-.55-.55-1.43 0-1.98l9.43-9.43c.55-.55 1.43-.55 1.98 0v.002Zm6.582 8.48-1.756-1.755a.592.592 0 0 0-.85 0l-3.58 3.58a.607.607 0 0 0 0 .86l1.75 1.75.61-.61-1.566-1.566 3.21-3.22 1.57 1.575.612-.614Zm-5.075 5.072-1.755-1.754a.592.592 0 0 0-.85 0l-3.58 3.58-.005.006-.005.005c-.24.23-.24.61 0 .85l1.752 1.752.617-.616-1.57-1.564 3.22-3.21 1.563 1.563.613-.612ZM8.822 8.195l3.58 3.58c.24.24.62.24.85-.01l3.58-3.58a.579.579 0 0 0 .18-.42h.01c0-.15-.06-.31-.18-.43l-3.58-3.58a.605.605 0 0 0-.86 0l-3.58 3.59c-.24.23-.24.61 0 .85Zm-5.07 5.07 3.58 3.58c.24.24.62.24.85 0l3.58-3.58a.58.58 0 0 0 .18-.43h.01c0-.16-.06-.31-.18-.43l-3.58-3.58a.592.592 0 0 0-.85 0l-3.59 3.59c-.24.23-.24.61 0 .85Zm6.933 8.753 2.362 2.364 9.636-13.04-.654-.655-11.344 11.331Z" fill="#FD9222"/>
  </symbol>
  <symbol id="icon-coin">
    <path d="M16 2.667c-7.333 0-13.333 6-13.333 13.333s6 13.333 13.333 13.333 13.333-6 13.333-13.333S23.333 2.667 16 2.667Zm0 24c-5.867 0-10.667-4.8-10.667-10.667S10.133 5.333 16 5.333 26.667 10.133 26.667 16 21.867 26.667 16 26.667Z" fill="#FD9222"/>
  <path d="M17.733 14.667h-3.466c-.667 0-1.2-.534-1.2-1.2 0-.667.533-1.2 1.2-1.2H19.2c.8 0 1.333-.534 1.333-1.334S20 9.6 19.2 9.6h-1.867V8.4c0-.8-.533-1.333-1.333-1.333-.8 0-1.333.533-1.333 1.333v1.2h-.4a3.87 3.87 0 0 0-3.867 3.867 3.87 3.87 0 0 0 3.867 3.866H17.6c.667 0 1.2.534 1.2 1.2 0 .667-.533 1.2-1.2 1.2h-4.933c-.8 0-1.334.534-1.334 1.334s.534 1.333 1.334 1.333h2v1.2c0 .8.533 1.333 1.333 1.333.8 0 1.333-.533 1.333-1.333v-1.2h.4a3.87 3.87 0 0 0 3.867-3.867 3.87 3.87 0 0 0-3.867-3.866Z" fill="#FD9222"/>
  </symbol>
  <symbol id="icon-spoon">
 <path d="M15.451 14.106a5.156 5.156 0 0 1-1.176-3.282c0-4.324 5.181-8.642 10.362-8.642a5.183 5.183 0 0 1 5.181 5.182c0 5.182-4.317 10.364-8.646 10.364a5.154 5.154 0 0 1-3.281-1.177L5.133 29.312a1.73 1.73 0 0 1-2.445-2.445l12.764-12.761Z" fill="#FD9222"/>
  </symbol>
  <symbol id="arrow">
<path d="M6.857 12h10.286m0 0L14.57 9.429M17.143 12l-2.572 2.571M12 23.143c6.154 0 11.143-4.989 11.143-11.143C23.143 5.846 18.154.857 12 .857 5.846.857.857 5.846.857 12c0 6.154 4.989 11.143 11.143 11.143Z"/>
  </symbol>
  <symbol id="close-icon">
 <path d="M21 7 7 21M7 7l14 14" stroke="#111" stroke-width="2" stroke-linecap="round" stroke-linejoin="round"/>
  </symbol>
  <symbol id="user-icon">
  <path d="M20 21v-2a4 4 0 0 0-4-4H8a4 4 0 0 0-4 4v2M12 11a4 4 0 1 0 0-8 4 4 0 0 0 0 8Z" stroke-width="2" stroke-linecap="round" stroke-linejoin="round"/>
  </symbol>
  <symbol id="email-icon">
   <path d="M4 4h16c1.1 0 2 .9 2 2v12c0 1.1-.9 2-2 2H4c-1.1 0-2-.9-2-2V6c0-1.1.9-2 2-2Z" stroke="#404040" stroke-width="2" stroke-linecap="round" stroke-linejoin="round"/>
  <path d="m22 6-10 7L2 6" stroke="#404040" stroke-width="2" stroke-linecap="round" stroke-linejoin="round"/>
  </symbol>
  <symbol id="phone-icon">
   <path d="M22 16.92v3a2.001 2.001 0 0 1-2.18 2 19.79 19.79 0 0 1-8.63-3.07 19.499 19.499 0 0 1-6-6 19.79 19.79 0 0 1-3.07-8.67A2 2 0 0 1 4.11 2h3a2 2 0 0 1 2 1.72c.127.96.362 1.903.7 2.81a2 2 0 0 1-.45 2.11L8.09 9.91a16 16 0 0 0 6 6l1.27-1.27a1.999 1.999 0 0 1 2.11-.45c.907.339 1.85.574 2.81.7A2 2 0 0 1 22 16.92Z" stroke="#404040" stroke-width="2" stroke-linecap="round" stroke-linejoin="round"/>
  </symbol>
  <symbol id="arrow-icon">
  <path d="M3.949 9.754c.436 0 .765-.167.988-.502l4.828-7.275c.08-.119.14-.235.177-.35.039-.119.058-.232.058-.34 0-.3-.105-.548-.314-.743a1.056 1.056 0 0 0-.763-.298c-.21 0-.387.042-.534.125-.143.08-.279.22-.408.419L3.928 7.155l-2.03-2.432a1.046 1.046 0 0 0-.826-.382c-.31 0-.566.1-.769.298A1.005 1.005 0 0 0 0 5.387c0 .136.02.265.063.387.045.119.127.242.246.371L3.002 9.32c.248.29.563.434.947.434Z" fill="#fff"/>
  </symbol>
  </defs>
</svg>
